<svg width="120" height="168" viewBox="0 0 120 168" fill="none" xmlns="http://www.w3.org/2000/svg">
<path d="M105.141 97.6728L103.004 96.3755L105.141 97.6728ZM0.526273 149.617C-0.321095 150.707 -0.124309 152.278 0.965793 153.125L18.7301 166.934C19.8202 167.781 21.3909 167.584 22.2382 166.494C23.0856 165.404 22.8888 163.833 21.7987 162.986L6.00819 150.712L18.2826 134.921C19.1299 133.831 18.9331 132.26 17.843 131.413C16.7529 130.566 15.1823 130.762 14.3349 131.853L0.526273 149.617ZM104.5 1.15115C102.282 2.30443 102.282 2.30383 102.281 2.30342C102.281 2.30356 102.281 2.30335 102.282 2.30361C102.282 2.30413 102.282 2.30545 102.284 2.30755C102.286 2.31177 102.29 2.31915 102.295 2.32966C102.306 2.35069 102.323 2.38425 102.346 2.43011C102.392 2.52185 102.463 2.66279 102.555 2.85106C102.739 3.22762 103.01 3.79338 103.348 4.53345C104.024 6.01387 104.966 8.18994 106.018 10.9427C108.123 16.4524 110.657 24.2496 112.371 33.3871C115.806 51.6982 115.905 75.123 103.004 96.3755L105.141 97.6728L107.279 98.97C121.064 76.2603 120.842 51.4243 117.285 32.4651C115.503 22.9676 112.873 14.8772 110.688 9.15822C109.595 6.29664 108.611 4.02305 107.896 2.45741C107.539 1.67443 107.249 1.06806 107.046 0.653241C106.944 0.445826 106.865 0.286259 106.809 0.176417C106.782 0.121496 106.76 0.0789978 106.745 0.0491657C106.737 0.0342467 106.731 0.0224914 106.726 0.0139328C106.724 0.00965632 106.722 0.0061747 106.721 0.003493C106.72 0.002158 106.72 0.000747341 106.719 7.73288e-05C106.719 -0.00112892 106.718 -0.0021311 104.5 1.15115ZM105.141 97.6728L103.004 96.3755C90.1254 117.592 65.1646 130.716 42.9818 138.54C31.9493 142.432 21.7323 144.968 14.2724 146.53C10.5446 147.311 7.51085 147.848 5.41479 148.189C4.3669 148.359 3.55378 148.48 3.00594 148.559C2.73204 148.598 2.52448 148.626 2.3871 148.645C2.3184 148.654 2.26726 148.661 2.23413 148.665C2.21757 148.667 2.20551 148.668 2.19801 148.669C2.19427 148.67 2.19167 148.67 2.19021 148.67C2.18948 148.671 2.18926 148.671 2.18889 148.671C2.18895 148.671 2.18931 148.671 2.50009 151.151C2.81087 153.632 2.81181 153.632 2.81302 153.632C2.81381 153.631 2.81532 153.631 2.8169 153.631C2.82007 153.631 2.82439 153.63 2.82986 153.629C2.84079 153.628 2.85632 153.626 2.87636 153.623C2.91645 153.618 2.97465 153.611 3.05049 153.6C3.20216 153.58 3.42437 153.55 3.71329 153.508C4.2911 153.426 5.13589 153.3 6.21701 153.124C8.37898 152.773 11.4877 152.222 15.2976 151.424C22.9133 149.829 33.3528 147.238 44.6449 143.255C67.1112 135.331 93.471 121.716 107.279 98.97L105.141 97.6728Z" fill="#C69639"/>
</svg>
