<svg width="101" height="96" viewBox="0 0 101 96" fill="none" xmlns="http://www.w3.org/2000/svg">
<path d="M77.011 27.5006L75.0115 29.0012L77.011 27.5006ZM74.7141 94.4874C75.2592 95.756 76.7294 96.3425 77.998 95.7974L98.6704 86.9148C99.939 86.3697 100.525 84.8995 99.9804 83.6309C99.4353 82.3624 97.9651 81.7759 96.6965 82.3209L78.321 90.2166L70.4254 71.8411C69.8803 70.5725 68.41 69.986 67.1415 70.5311C65.8729 71.0762 65.2864 72.5465 65.8315 73.815L74.7141 94.4874ZM0.0111087 2.50019C0.0234296 5.00016 0.0231151 5.00016 0.023021 5.00016C0.0232854 5.00016 0.0234109 5.00016 0.0239362 5.00016C0.0249834 5.00015 0.0269103 5.00015 0.0297066 5.00014C0.0353022 5.00012 0.0443808 5.00009 0.0569001 5.00008C0.081936 5.00004 0.120731 5.00003 0.172908 5.00014C0.277271 5.00035 0.43516 5.00106 0.643622 5.00304C1.06058 5.007 1.67969 5.01605 2.47734 5.03647C4.0729 5.07732 6.38121 5.16363 9.21344 5.34548C14.8827 5.70947 22.6272 6.45479 30.9444 7.97716C39.272 9.50144 48.1028 11.7922 55.9759 15.2189C63.8682 18.6539 70.624 23.1552 75.0115 29.0012L77.011 27.5006L79.0106 25.9999C73.9093 19.2028 66.2957 14.2574 57.9713 10.6343C49.6278 7.00287 40.3948 4.62389 31.8446 3.05887C23.2839 1.49193 15.3368 0.728334 9.53381 0.35575C6.62991 0.169302 4.25697 0.0803968 2.60531 0.0381095C1.77934 0.0169641 1.13335 0.00746493 0.691096 0.00326598C0.469958 0.00116665 0.299724 0.000390097 0.18336 0.000146725C0.125176 2.56472e-05 0.080455 3.78264e-05 0.049573 8.12191e-05C0.034129 0.000105308 0.0221466 0.000135202 0.0136654 0.000164126C0.00942622 0.000177392 0.00606454 0.000188577 0.00358194 0.00019958C0.00234083 0.000205308 0.00114333 0.000209148 0.000522661 0.000211876C-0.000456507 0.000218393 -0.00121224 0.000221807 0.0111087 2.50019ZM77.011 27.5006L75.0115 29.0012C82.9582 39.5896 83.1184 55.1819 80.9881 68.701C79.9366 75.3733 78.3569 81.3584 77.0375 85.6789C76.3786 87.8366 75.7867 89.5725 75.3616 90.7638C75.1491 91.3592 74.9784 91.8182 74.8621 92.1251C74.8039 92.2786 74.7594 92.394 74.73 92.4695C74.7153 92.5073 74.7044 92.535 74.6975 92.5526C74.6941 92.5613 74.6916 92.5675 74.6902 92.5711C74.6895 92.573 74.689 92.5741 74.6888 92.5746C74.6887 92.5749 74.6887 92.5748 74.6887 92.5749C74.6888 92.5746 74.689 92.5742 77.011 93.5005C79.3331 94.4268 79.3334 94.426 79.3338 94.4251C79.334 94.4246 79.3344 94.4235 79.3348 94.4224C79.3357 94.4203 79.3368 94.4175 79.3381 94.4141C79.3409 94.4073 79.3446 94.3978 79.3493 94.3858C79.3588 94.3617 79.3723 94.3273 79.3896 94.2828C79.4243 94.1938 79.4742 94.0645 79.5377 93.8967C79.6648 93.5612 79.8467 93.0719 80.0707 92.4443C80.5185 91.1894 81.1354 89.3796 81.8195 87.1392C83.1862 82.6638 84.8297 76.4436 85.9271 69.4792C88.0945 55.7248 88.2547 38.3171 79.0106 25.9999L77.011 27.5006Z" fill="#C69639"/>
</svg>
