<svg width="289" height="155" viewBox="0 0 289 155" fill="none" xmlns="http://www.w3.org/2000/svg">
<path d="M35.0785 22.7892L34.2005 20.4485L35.0785 22.7892ZM23.3398 154.678C24.6588 155.086 26.0589 154.347 26.4669 153.028L33.1153 131.533C33.5233 130.214 32.7847 128.814 31.4657 128.406C30.1466 127.998 28.7465 128.736 28.3386 130.055L22.4288 149.162L3.3219 143.252C2.00287 142.844 0.602808 143.583 0.194835 144.902C-0.213137 146.221 0.525438 147.621 1.8445 148.029L23.3398 154.678ZM288.079 3.78933C288.2 1.29226 288.199 1.29221 288.197 1.29214C288.196 1.29207 288.193 1.29196 288.19 1.29182C288.185 1.29154 288.176 1.29114 288.165 1.29061C288.143 1.28954 288.11 1.28796 288.066 1.28591C287.978 1.28179 287.848 1.27572 287.676 1.26787C287.333 1.25219 286.822 1.2294 286.155 1.20089C284.819 1.14387 282.853 1.06394 280.325 0.972098C275.27 0.788429 267.969 0.55713 258.978 0.366229C240.998 -0.0155252 216.252 -0.2359 189.192 0.410273C135.213 1.69922 71.5505 6.43907 34.2005 20.4485L35.0785 22.7892L35.9565 25.13C72.4012 11.4601 135.238 6.70004 189.311 5.40885C216.277 4.76494 240.944 4.98446 258.872 5.3651C267.834 5.55541 275.11 5.78594 280.143 5.9688C282.66 6.06023 284.616 6.13974 285.941 6.19634C286.604 6.22464 287.109 6.24721 287.448 6.26268C287.618 6.27041 287.746 6.27637 287.831 6.28038C287.874 6.28239 287.906 6.2839 287.927 6.28492C287.937 6.28542 287.945 6.2858 287.95 6.28605C287.953 6.28617 287.955 6.28626 287.956 6.28632C287.957 6.28638 287.958 6.2864 288.079 3.78933ZM35.0785 22.7892L34.2005 20.4485C16.8824 26.9443 7.389 38.7606 3.03828 52.7593C-1.26999 66.6215 -0.506649 82.4968 2.29157 97.3166C5.09659 112.172 9.99197 126.199 14.1696 136.488C16.2611 141.639 18.179 145.868 19.5766 148.815C20.2755 150.288 20.8446 151.442 21.2407 152.23C21.4388 152.624 21.5937 152.927 21.6999 153.134C21.753 153.237 21.794 153.315 21.8221 153.369C21.8362 153.396 21.847 153.417 21.8546 153.432C21.8584 153.439 21.8613 153.444 21.8635 153.448C21.8645 153.45 21.8655 153.452 21.866 153.453C21.8668 153.455 21.8673 153.456 24.0785 152.289C26.2897 151.123 26.2898 151.123 26.2897 151.123C26.2894 151.122 26.2891 151.122 26.2885 151.121C26.2873 151.118 26.2853 151.114 26.2824 151.109C26.2766 151.098 26.2676 151.081 26.2554 151.057C26.231 151.01 26.1937 150.939 26.1444 150.843C26.0457 150.652 25.8986 150.364 25.7084 149.985C25.3281 149.228 24.7757 148.109 24.0941 146.672C22.7308 143.798 20.8525 139.656 18.8022 134.607C14.6963 124.495 9.92653 110.804 7.20478 96.3889C4.47622 81.9383 3.85116 66.9908 7.81299 54.2433C11.7324 41.6325 20.1676 31.0522 35.9565 25.13L35.0785 22.7892Z" fill="#C69639"/>
</svg>
